<svg width="289pt" height="273pt" viewBox="0 0 289 273" version="1.1" xmlns="http://www.w3.org/2000/svg">
<g id="#ffffffff">
</g>
<g id="#3b1802ff">
<path fill="#3b1802" opacity="1.00" d=" M 134.30 9.62 C 138.57 9.73 142.72 8.01 146.99 8.73 C 149.56 9.21 152.16 9.57 154.78 9.61 C 154.33 10.21 153.88 10.80 153.43 11.40 C 154.58 11.40 155.73 11.46 156.88 11.57 C 165.05 15.46 172.59 20.59 180.80 24.41 C 190.56 30.00 200.27 35.69 210.35 40.68 C 232.32 53.64 255.09 65.15 277.11 78.01 C 281.77 80.28 288.32 82.71 288.20 88.96 C 288.21 131.63 288.15 174.32 288.22 217.00 C 288.20 221.42 289.06 226.95 284.99 229.97 C 282.26 231.46 279.26 232.99 276.04 232.58 C 271.06 231.94 266.49 227.99 265.51 223.05 C 265.27 181.36 265.69 139.66 265.30 97.98 C 262.03 97.30 259.47 95.08 256.62 93.51 C 247.65 88.87 238.94 83.72 230.04 78.93 C 227.04 77.24 224.12 75.26 220.78 74.28 C 220.58 73.78 220.38 73.28 220.18 72.78 C 218.94 72.62 217.64 72.53 216.61 71.75 C 212.16 69.01 207.66 66.22 202.79 64.29 C 202.56 63.83 202.32 63.36 202.09 62.90 C 195.91 60.95 190.77 56.71 184.81 54.29 C 184.57 53.82 184.33 53.35 184.10 52.88 C 176.15 50.09 169.32 44.97 161.82 41.26 C 156.39 38.57 151.35 35.17 145.90 32.53 C 145.44 32.51 144.52 32.46 144.06 32.43 C 134.09 37.52 124.31 42.99 114.63 48.61 C 102.71 54.61 91.40 61.72 79.49 67.72 C 61.31 78.20 42.72 87.95 24.57 98.45 C 23.72 102.93 23.45 107.45 23.81 112.00 C 23.07 119.69 25.30 127.32 24.02 134.99 C 22.38 144.65 25.67 154.36 23.77 163.99 C 24.39 171.61 24.85 179.38 23.67 186.99 C 24.04 190.68 24.12 194.31 23.65 198.00 C 25.12 207.08 24.12 216.26 23.34 225.35 C 22.07 227.85 20.42 230.48 17.60 231.41 C 13.23 233.95 8.13 232.11 4.04 229.93 C 0.12 225.94 0.60 220.13 0.75 215.00 C 0.78 175.66 0.79 136.33 0.74 97.00 C 0.84 92.45 -0.15 86.97 3.45 83.45 C 6.34 80.71 10.19 79.36 13.53 77.31 C 29.85 67.61 47.00 59.36 63.21 49.49 C 71.15 45.95 78.22 40.78 86.08 37.09 C 96.75 31.11 107.55 25.35 118.15 19.26 C 120.48 17.91 123.54 17.37 125.02 14.91 C 128.75 14.20 131.59 10.83 135.61 11.37 C 135.18 10.79 134.74 10.21 134.30 9.62 Z"/>
</g>
<g id="#ff772dff">
<path fill="#ff772d" opacity="1.00" d=" M 49.59 99.61 C 77.71 99.27 105.83 99.72 133.95 99.39 C 134.85 103.20 134.47 107.13 134.51 111.00 C 134.50 127.33 134.50 143.67 134.51 160.00 C 134.45 163.58 134.86 167.22 134.05 170.76 C 116.93 170.41 99.79 171.07 82.68 170.42 C 82.72 165.58 81.62 160.83 81.40 156.01 C 80.28 148.51 75.63 141.37 68.46 138.40 C 62.28 136.74 56.07 134.93 49.58 135.39 C 49.44 123.47 49.43 111.54 49.59 99.61 Z"/>
<path fill="#ff772d" opacity="1.00" d=" M 154.57 99.57 C 183.17 99.48 211.78 99.37 240.37 99.63 C 240.46 111.53 240.49 123.44 240.37 135.35 C 233.90 134.95 227.70 136.74 221.53 138.38 C 218.18 139.82 214.94 141.85 212.65 144.72 C 207.93 152.41 206.63 161.55 206.40 170.43 C 189.09 170.97 171.74 170.60 154.41 170.62 C 154.63 146.94 154.32 123.25 154.57 99.57 Z"/>
<path fill="#ff772d" opacity="1.00" d=" M 44.44 150.43 C 49.80 148.68 55.97 148.62 61.22 150.80 C 64.08 152.58 67.27 154.76 68.48 158.00 C 69.17 166.14 68.29 174.35 68.84 182.49 C 69.25 183.60 69.80 185.42 71.25 185.35 C 120.71 185.42 170.17 185.26 219.62 185.44 C 221.43 176.78 219.52 167.79 220.57 159.04 C 224.82 149.17 238.34 146.75 247.04 151.84 C 250.07 154.41 253.98 157.52 253.57 161.94 C 253.49 189.12 253.69 216.29 253.47 243.47 C 244.03 244.01 234.49 242.95 225.11 243.96 C 221.60 249.54 225.37 256.69 222.36 262.42 C 219.75 265.30 215.56 267.22 211.65 266.22 C 208.74 265.25 206.22 263.12 204.67 260.50 C 203.99 255.37 204.92 250.17 204.25 245.05 C 203.80 243.18 201.41 243.78 200.03 243.55 C 163.01 243.62 126.00 243.52 88.99 243.60 C 87.34 243.31 85.89 244.42 85.61 246.06 C 85.05 251.14 86.44 256.55 84.22 261.36 C 83.00 263.32 81.24 264.92 79.32 266.18 C 75.79 266.76 71.44 267.15 68.94 264.02 C 63.10 258.93 66.67 250.45 65.25 243.83 C 55.54 243.25 45.80 243.70 36.08 243.62 C 35.34 239.79 35.67 235.87 35.65 232.00 C 35.65 209.31 35.65 186.63 35.64 163.95 C 35.58 158.23 39.46 152.93 44.44 150.43 Z"/>
</g>
</svg>