<?xml version="1.0" encoding="UTF-8" ?>
<!DOCTYPE svg PUBLIC "-//W3C//DTD SVG 1.1//EN" "http://www.w3.org/Graphics/SVG/1.1/DTD/svg11.dtd">
<svg width="438pt" height="220pt" viewBox="0 0 438 220" version="1.1" xmlns="http://www.w3.org/2000/svg">
<g id="#ff9600ff">
<path fill="#ff9600" opacity="1.00" d=" M 240.50 20.69 C 251.71 14.17 262.95 7.73 274.17 1.22 C 273.79 15.53 274.20 29.85 273.93 44.17 C 273.39 46.01 275.23 46.78 276.46 47.53 C 292.95 57.02 309.44 66.50 325.92 76.01 C 325.66 102.30 326.03 128.61 325.76 154.89 C 322.69 158.24 317.62 159.49 313.99 162.37 C 313.56 162.47 312.70 162.67 312.27 162.77 C 312.44 156.49 312.30 150.22 312.33 143.94 C 301.86 149.39 292.03 156.06 281.41 161.18 C 280.19 167.83 281.04 174.65 280.79 181.37 C 278.55 182.57 276.53 184.43 273.99 184.90 C 271.39 184.37 269.37 182.39 267.08 181.15 C 267.12 174.77 267.48 168.33 266.93 161.98 C 256.82 155.74 246.26 149.82 235.81 144.03 C 235.76 150.46 235.74 156.90 235.72 163.33 C 231.32 160.60 226.83 158.03 222.31 155.51 C 222.28 114.16 222.13 72.79 222.39 31.46 C 228.09 27.35 234.53 24.39 240.50 20.69 M 272.56 62.74 C 260.27 69.79 248.09 77.02 235.74 83.96 C 248.62 91.21 261.36 98.72 274.19 106.07 C 274.19 120.73 273.95 135.40 274.28 150.05 C 286.84 142.50 299.60 135.31 312.28 127.97 C 312.27 113.32 312.30 98.67 312.27 84.02 C 300.35 77.14 288.45 70.24 276.56 63.32 C 275.32 62.65 273.87 61.63 272.56 62.74 Z" />
<path fill="#ff9600" opacity="1.00" d=" M 51.57 47.37 C 52.79 46.53 54.47 45.93 55.75 47.06 C 72.29 56.90 89.08 66.29 105.67 76.03 C 88.29 85.89 71.11 96.12 53.70 105.94 C 53.90 120.39 53.33 134.90 53.98 149.31 L 54.75 149.67 C 70.17 140.83 85.49 131.80 100.95 123.02 C 102.55 122.14 104.05 121.11 105.55 120.07 C 105.88 125.43 105.77 130.79 105.63 136.15 C 91.15 144.07 77.08 152.67 62.70 160.75 C 60.00 162.30 57.24 163.79 54.80 165.73 C 54.17 165.54 52.92 165.16 52.29 164.97 C 35.57 155.37 18.92 145.64 2.17 136.09 C 1.80 116.05 1.82 95.99 2.15 75.96 C 7.84 72.69 13.42 69.25 19.20 66.14 C 29.94 59.80 40.81 53.69 51.57 47.37 Z" />
<path fill="#ff9600" opacity="1.00" d=" M 150.86 54.26 C 154.42 50.90 159.26 49.38 163.09 46.36 C 163.74 46.53 165.04 46.86 165.70 47.03 C 181.99 56.49 198.30 65.95 214.63 75.35 C 216.05 75.99 215.64 77.72 215.78 78.96 C 215.66 97.86 215.82 116.78 215.69 135.68 C 212.96 138.05 209.51 139.39 206.46 141.30 C 192.70 149.52 178.64 157.23 164.86 165.41 C 162.93 166.28 161.29 164.11 159.62 163.41 C 143.85 154.23 128.06 145.05 112.15 136.11 C 112.20 116.13 112.08 96.15 112.22 76.17 C 129.37 86.13 146.55 96.05 163.74 105.94 C 163.87 120.71 163.84 135.47 163.74 150.23 C 176.66 143.03 189.33 135.36 202.24 128.12 C 202.20 113.37 202.20 98.62 202.22 83.87 C 185.08 74.04 168.04 64.03 150.86 54.26 Z" />
<path fill="#ff9600" opacity="1.00" d=" M 380.17 48.28 C 381.86 47.35 383.87 45.48 385.80 47.03 C 402.56 56.71 419.31 66.40 436.10 76.03 C 418.76 85.54 401.85 95.83 384.58 105.48 C 383.54 110.33 384.28 115.72 384.31 120.76 C 401.40 110.67 418.63 100.83 435.81 90.90 C 436.02 96.12 436.42 101.49 435.61 106.63 C 421.51 114.95 407.23 123.01 393.13 131.33 C 389.93 133.38 385.98 134.55 383.60 137.65 C 384.50 141.72 384.03 145.90 384.20 150.02 C 401.59 140.24 418.68 129.93 436.11 120.23 C 436.09 125.52 436.02 130.80 435.84 136.08 C 421.05 144.49 406.39 153.13 391.60 161.55 C 388.83 162.99 386.36 165.20 383.21 165.73 C 372.86 158.86 361.73 153.23 351.10 146.80 C 344.90 143.10 338.60 139.56 332.27 136.08 C 332.22 116.06 332.32 96.04 332.22 76.03 C 348.20 66.78 364.28 57.69 380.17 48.28 Z" />
</g>
<g id="#fffffeff">
<path fill="#fffffe" opacity="1.00" d=" M 377.55 200.96 C 379.62 201.00 381.72 200.86 383.77 201.26 C 385.15 202.56 385.04 204.64 384.43 206.28 C 382.36 207.50 379.82 206.85 377.55 207.04 C 377.55 205.01 377.55 202.98 377.55 200.96 Z" />
<path fill="#fffffe" opacity="1.00" d=" M 18.68 209.99 C 19.46 207.47 20.25 204.96 21.05 202.46 C 21.80 204.97 22.55 207.48 23.30 210.00 C 21.76 210.00 20.22 209.99 18.68 209.99 Z" />
<path fill="#fffffe" opacity="1.00" d=" M 51.35 211.23 C 51.64 211.54 51.64 211.54 51.35 211.23 Z" />
</g>
<g id="#7e7e7eff">
<path fill="#7e7e7e" opacity="1.00" d=" M 18.57 198.06 C 20.16 198.04 21.76 198.04 23.35 198.05 C 25.44 204.73 27.69 211.36 30.04 217.95 C 28.58 217.97 27.12 217.99 25.66 218.02 C 25.15 216.33 24.64 214.66 24.10 212.99 C 22.02 212.99 19.93 213.00 17.85 213.00 C 17.32 214.67 16.81 216.33 16.29 218.00 C 14.83 218.00 13.37 218.00 11.91 218.00 C 14.19 211.37 16.49 204.75 18.57 198.06 M 18.68 209.99 C 20.22 209.99 21.76 210.00 23.30 210.00 C 22.55 207.48 21.80 204.97 21.05 202.46 C 20.25 204.96 19.46 207.47 18.68 209.99 Z" />
<path fill="#7e7e7e" opacity="1.00" d=" M 39.87 198.01 C 41.25 198.00 42.62 198.00 44.00 197.99 C 46.16 201.82 48.11 205.75 50.08 209.69 C 50.28 209.74 50.68 209.86 50.88 209.92 C 52.12 206.12 51.17 201.96 51.45 198.01 C 52.67 198.00 53.90 198.00 55.13 198.00 C 55.13 204.66 55.13 211.33 55.13 217.99 C 53.79 218.00 52.46 218.00 51.13 218.01 C 48.71 213.57 46.73 208.87 43.86 204.69 C 43.59 209.12 43.73 213.55 43.71 217.99 C 42.43 217.99 41.15 218.00 39.87 218.00 C 39.87 211.34 39.87 204.67 39.87 198.01 M 51.35 211.23 C 51.64 211.54 51.64 211.54 51.35 211.23 Z" />
<path fill="#7e7e7e" opacity="1.00" d=" M 71.48 198.36 C 76.36 196.56 81.90 199.79 82.65 204.95 C 81.26 204.97 79.87 204.99 78.48 205.00 C 77.70 202.85 76.04 200.26 73.35 201.03 C 69.72 202.33 69.58 206.81 69.89 210.03 C 69.87 212.65 72.14 215.46 74.94 214.99 C 76.96 214.81 77.59 212.48 78.44 211.00 C 79.81 211.01 81.18 211.02 82.55 211.04 C 81.84 212.74 81.29 214.62 79.89 215.91 C 75.95 219.93 68.00 218.15 66.33 212.68 C 64.59 207.64 65.64 200.13 71.48 198.36 Z" />
<path fill="#7e7e7e" opacity="1.00" d=" M 92.54 198.00 C 93.93 198.00 95.32 198.00 96.71 198.01 C 96.70 204.67 96.70 211.33 96.71 217.99 C 95.32 217.99 93.93 218.00 92.54 218.00 C 92.54 211.33 92.54 204.66 92.54 198.00 Z" />
<path fill="#7e7e7e" opacity="1.00" d=" M 113.23 198.00 C 114.72 198.00 116.22 198.00 117.71 198.01 C 119.91 204.68 122.14 211.35 124.43 218.00 C 123.03 218.00 121.62 218.00 120.22 218.00 C 119.74 216.35 119.25 214.71 118.77 213.07 C 116.59 213.02 114.42 213.00 112.25 213.00 C 111.74 214.65 111.24 216.31 110.75 217.97 C 109.29 217.98 107.83 218.00 106.38 218.01 C 108.74 211.37 111.03 204.70 113.23 198.00 M 113.23 209.99 C 114.36 209.99 116.63 209.99 117.76 209.99 C 117.03 207.53 116.31 205.08 115.56 202.63 C 114.75 205.07 113.98 207.53 113.23 209.99 Z" />
<path fill="#7e7e7e" opacity="1.00" d=" M 134.87 198.01 C 139.44 198.45 145.21 196.49 148.73 200.38 C 151.80 204.73 151.47 211.19 148.49 215.50 C 145.14 219.54 139.38 217.55 134.87 217.99 C 134.87 211.33 134.87 204.67 134.87 198.01 M 138.87 200.96 C 138.86 205.66 138.86 210.35 138.87 215.05 C 141.27 214.90 144.62 215.69 145.83 212.91 C 147.10 209.59 147.22 205.57 145.67 202.32 C 143.96 200.34 141.14 201.15 138.87 200.96 Z" />
<path fill="#7e7e7e" opacity="1.00" d=" M 167.22 198.24 C 171.31 197.13 176.40 198.87 177.89 203.10 C 179.35 207.26 179.19 212.61 175.86 215.86 C 171.80 219.61 164.07 218.53 161.78 213.28 C 159.40 208.00 160.78 199.73 167.22 198.24 M 168.17 201.21 C 164.51 202.83 164.25 207.64 165.09 211.03 C 165.60 213.89 168.96 216.07 171.67 214.61 C 175.08 212.86 175.02 208.34 174.44 205.10 C 173.97 202.30 170.96 200.11 168.17 201.21 Z" />
<path fill="#7e7e7e" opacity="1.00" d=" M 204.40 198.01 C 208.84 197.99 213.29 197.99 217.74 198.01 C 217.74 198.75 217.74 200.24 217.74 200.99 C 214.62 201.00 211.51 201.00 208.40 201.01 C 208.39 202.67 208.39 204.32 208.39 205.99 C 211.08 206.00 213.77 206.00 216.47 206.01 C 216.47 206.75 216.46 208.25 216.46 209.00 C 213.77 209.00 211.08 209.00 208.39 209.01 C 208.40 212.01 208.40 215.00 208.40 218.00 C 207.06 218.00 205.73 217.99 204.40 217.99 C 204.41 211.33 204.40 204.67 204.40 198.01 Z" />
<path fill="#7e7e7e" opacity="1.00" d=" M 228.00 198.00 C 229.33 198.00 230.66 198.00 232.00 198.00 C 232.09 203.21 231.74 208.43 232.31 213.62 C 232.75 213.96 233.64 214.65 234.08 214.99 C 234.79 214.99 236.20 214.99 236.91 215.00 C 237.36 214.65 238.25 213.96 238.69 213.62 C 239.26 208.43 238.91 203.21 239.00 198.00 C 240.33 198.00 241.66 198.00 243.00 198.00 C 242.84 203.04 243.37 208.12 242.70 213.13 C 241.43 219.81 229.56 219.80 228.30 213.12 C 227.63 208.11 228.16 203.03 228.00 198.00 Z" />
<path fill="#7e7e7e" opacity="1.00" d=" M 255.00 198.01 C 258.97 198.16 263.02 197.58 266.93 198.36 C 271.17 199.82 271.59 206.00 268.03 208.50 C 270.88 210.89 269.50 214.90 270.60 218.05 C 269.07 218.01 267.54 217.98 266.02 217.94 C 265.82 215.44 265.68 212.94 265.46 210.44 C 263.37 210.07 261.25 209.96 259.13 209.94 C 259.13 212.62 259.13 215.31 259.13 218.00 C 257.75 218.00 256.37 218.00 255.00 218.00 C 255.00 211.34 255.00 204.67 255.00 198.01 M 259.13 201.02 C 259.13 203.00 259.13 204.99 259.13 206.98 C 261.14 206.99 263.15 207.01 265.16 207.07 C 266.70 205.18 266.58 202.81 265.10 200.93 C 263.10 200.98 261.11 201.00 259.13 201.02 Z" />
<path fill="#7e7e7e" opacity="1.00" d=" M 281.40 197.98 C 282.78 198.01 284.17 198.04 285.57 198.08 C 288.06 202.88 290.57 207.67 292.97 212.52 C 293.01 207.68 293.00 202.83 293.00 197.99 C 294.20 198.00 295.40 198.00 296.61 198.01 C 296.59 204.67 296.59 211.33 296.60 217.99 C 295.38 217.99 294.16 218.00 292.94 218.01 L 292.44 217.65 C 290.10 212.88 287.59 208.18 285.08 203.50 C 285.16 208.34 285.13 213.17 285.13 218.00 C 283.88 218.00 282.64 217.99 281.39 217.99 C 281.41 211.32 281.40 204.65 281.40 197.98 Z" />
<path fill="#7e7e7e" opacity="1.00" d=" M 307.60 198.00 C 308.93 198.00 310.27 198.00 311.60 198.01 C 311.59 204.67 311.59 211.33 311.61 217.98 C 310.27 217.99 308.93 218.00 307.60 218.01 C 307.60 211.34 307.60 204.67 307.60 198.00 Z" />
<path fill="#7e7e7e" opacity="1.00" d=" M 321.39 198.01 C 326.46 197.99 331.53 197.99 336.61 198.01 C 336.61 198.76 336.61 200.24 336.61 200.99 C 334.73 200.99 332.86 201.00 331.00 201.01 C 331.00 206.67 331.00 212.33 331.00 218.00 C 329.66 218.00 328.33 218.00 327.00 218.00 C 327.00 212.33 327.00 206.67 327.00 201.01 C 325.13 201.00 323.26 200.99 321.40 200.99 C 321.39 200.24 321.39 198.76 321.39 198.01 Z" />
<path fill="#7e7e7e" opacity="1.00" d=" M 347.00 198.00 C 348.33 198.00 349.66 198.00 351.00 198.00 C 351.09 202.65 350.81 207.32 351.11 211.96 C 351.07 213.29 352.27 214.10 352.98 215.07 C 353.74 215.07 355.26 215.07 356.02 215.07 C 356.71 214.11 357.91 213.31 357.89 212.00 C 358.19 207.34 357.91 202.67 358.00 198.00 C 359.33 198.00 360.66 198.00 362.00 198.00 C 361.89 202.93 362.24 207.89 361.83 212.81 C 360.86 219.93 348.15 219.94 347.17 212.81 C 346.75 207.89 347.11 202.94 347.00 198.00 Z" />
<path fill="#7e7e7e" opacity="1.00" d=" M 373.45 198.01 C 377.20 198.07 380.97 197.80 384.71 198.12 C 389.45 199.07 390.51 205.85 386.56 208.46 C 389.43 210.86 388.18 214.85 389.04 218.06 C 387.48 218.01 385.94 217.97 384.39 217.92 C 384.25 215.68 384.27 213.42 383.93 211.21 C 382.60 209.08 379.75 210.31 377.71 209.97 C 377.70 212.64 377.70 215.32 377.71 218.00 C 376.28 217.99 374.86 217.99 373.45 217.99 C 373.46 211.33 373.46 204.67 373.45 198.01 M 377.55 200.96 C 377.55 202.98 377.55 205.01 377.55 207.04 C 379.82 206.85 382.36 207.50 384.43 206.28 C 385.04 204.64 385.15 202.56 383.77 201.26 C 381.72 200.86 379.62 201.00 377.55 200.96 Z" />
<path fill="#7e7e7e" opacity="1.00" d=" M 400.07 199.00 C 404.69 199.00 409.31 199.00 413.94 199.01 C 413.94 199.75 413.94 201.25 413.93 201.99 C 410.60 202.00 407.26 202.00 403.93 202.00 C 403.93 203.33 403.93 204.66 403.93 206.00 C 406.95 206.00 409.97 206.00 413.00 206.00 C 413.00 206.75 413.00 208.25 413.00 209.00 C 409.97 209.00 406.95 209.00 403.93 209.00 C 403.93 210.66 403.93 212.33 403.93 214.00 C 407.37 214.00 410.82 214.00 414.26 214.00 C 414.26 215.33 414.26 216.66 414.26 218.00 C 409.53 218.00 404.80 218.00 400.07 218.00 C 400.07 211.66 400.07 205.33 400.07 199.00 Z" />
</g>
</svg>
